<svg width="18" height="18" viewBox="0 0 18 18" fill="none" xmlns="http://www.w3.org/2000/svg">
  <path d="M17.316 3.15005C16.6949 3.42505 16.0272 3.61672 15.3288 3.70838C16.0464 3.27505 16.5835 2.59172 16.847 1.77505C16.1792 2.17505 15.4453 2.45838 14.6722 2.60005C14.0447 1.92505 13.147 1.50005 12.157 1.50005C10.2468 1.50005 8.70602 3.04172 8.70602 4.95005C8.70602 5.22505 8.73352 5.49172 8.79185 5.74172C5.96085 5.60005 3.47519 4.19172 1.79752 2.03338C1.49252 2.56672 1.31685 3.17505 1.31685 3.82505C1.31685 5.05005 1.94752 6.14172 2.91419 6.77505C2.35852 6.75838 1.83085 6.60005 1.36919 6.34172V6.37505C1.36919 8.04172 2.54352 9.42505 4.10352 9.74172C3.81185 9.82505 3.49752 9.86672 3.17519 9.86672C2.94752 9.86672 2.71919 9.85005 2.50252 9.80838C2.96185 11.1667 4.23352 12.1667 5.77519 12.2001C4.60852 13.1167 3.14752 13.6501 1.56919 13.6501C1.28685 13.6501 1.01685 13.6417 0.746855 13.6084C2.30852 14.5834 4.16919 15.1501 6.16919 15.1501C12.1475 15.1501 15.5525 10.0001 15.5525 5.35005C15.5525 5.19172 15.5475 5.04172 15.5408 4.89172C16.216 4.40838 16.8043 3.80005 17.316 3.15005Z" fill="#7D818D"/>
</svg>
